<?xml version="1.0" encoding="UTF-8" standalone="no"?>
<svg
   xmlns:dc="http://purl.org/dc/elements/1.1/"
   xmlns:cc="http://creativecommons.org/ns#"
   xmlns:rdf="http://www.w3.org/1999/02/22-rdf-syntax-ns#"
   xmlns:svg="http://www.w3.org/2000/svg"
   xmlns="http://www.w3.org/2000/svg"
   xmlns:sodipodi="http://sodipodi.sourceforge.net/DTD/sodipodi-0.dtd"
   xmlns:inkscape="http://www.inkscape.org/namespaces/inkscape"
   version="1.1"
   id="Слой_1"
   x="0px"
   y="0px"
   viewBox="0 0 555.7504 129.48398"
   xml:space="preserve"
   sodipodi:docname="newlogo.svg"
   width="555.75037"
   height="129.48398"
   inkscape:version="1.0.1 (3bc2e813f5, 2020-09-07)"><metadata
   id="metadata25"><rdf:RDF><cc:Work
       rdf:about=""><dc:format>image/svg+xml</dc:format><dc:type
         rdf:resource="http://purl.org/dc/dcmitype/StillImage" /></cc:Work></rdf:RDF></metadata><defs
   id="defs23">
	

		
		
		
		
		
		
	</defs><sodipodi:namedview
   pagecolor="#ffffff"
   bordercolor="#666666"
   borderopacity="1"
   objecttolerance="10"
   gridtolerance="10"
   guidetolerance="10"
   inkscape:pageopacity="0"
   inkscape:pageshadow="2"
   inkscape:window-width="1938"
   inkscape:window-height="981"
   id="namedview21"
   showgrid="false"
   inkscape:zoom="0.89995411"
   inkscape:cx="506.61816"
   inkscape:cy="-63.417326"
   inkscape:window-x="322"
   inkscape:window-y="174"
   inkscape:window-maximized="0"
   inkscape:current-layer="text858"
   inkscape:document-rotation="0" />
<style
   type="text/css"
   id="style2">
	.st0{fill:#B5EC46;}
	.st1{fill:#000304;}
</style>
<path
   class="st1"
   d="M 69.550022,7.1602706 C 60.419118,6.7915642 52.741354,10.456937 46.039579,16.551434 c -3.144846,2.862897 -3.448486,6.98373 -0.563905,10.302085 3.079782,3.556932 6.289696,7.005419 9.586358,10.367151 6.159565,6.289696 12.427573,12.470946 18.673887,18.717265 1.583268,1.583268 2.971338,3.144846 5.704101,2.927959 3.947325,-0.32533 6.940354,2.125481 9.824939,4.424474 6.615023,5.270332 12.362501,11.408202 17.762961,17.893097 6.94035,8.328425 15.0302,15.377217 23.55382,22.013925 1.99535,1.53989 3.55693,3.73044 4.98838,5.85592 1.19287,1.75678 0.91092,3.88227 -0.52053,5.44384 -3.70875,4.07746 -7.46088,8.13323 -11.4082,11.95042 -3.4268,3.29667 -6.35476,3.57862 -9.34779,1.30132 -1.14949,-0.86754 -2.12548,-2.01704 -3.07978,-3.10147 -5.53059,-6.22463 -10.82261,-12.68783 -16.61347,-18.6522 C 88.766121,99.98748 82.389669,94.478576 76.338547,88.666032 73.866052,86.280285 71.588748,83.69934 69.268071,81.161776 67.012452,78.732649 65.884647,75.739626 65.906332,72.508025 65.928043,70.512673 65.233991,69.189672 63.889295,67.888349 54.888524,59.082781 45.952825,50.190453 36.930368,41.40657 33.763833,38.326792 29.708062,38.044838 25.782425,39.346153 c -1.648334,0.542218 -2.79783,2.559258 -4.164211,3.92564 -0.06507,0.06506 -0.06507,0.216883 -0.04338,0.303637 1.38807,2.862897 -0.477149,4.68474 -2.190548,6.441516 -1.951974,2.01704 -3.990703,3.990706 -6.116186,5.834235 -1.214562,1.06274 -2.819518,0.932607 -3.9907021,-0.04337 -2.9713383,-2.429121 -5.8125448,-5.031754 -8.61037435,-7.656075 -0.91092107,-0.845855 -0.86754399,-3.621995 0,-4.771494 2.12548295,-2.797828 4.22927705,-5.639035 6.59333435,-8.219979 0.6940354,-0.737411 2.2773035,-0.672345 3.4701761,-0.932608 0.238575,-0.06507 0.650658,0.108443 0.737413,0 1.323004,-1.73509 3.600307,-2.841209 3.209913,-5.682417 -0.715722,-5.205272 1.344695,-9.412862 4.901625,-13.099924 C 30.380409,4.2323092 43.718898,-0.30060805 59.009357,0.37173865 64.019428,0.58862462 68.704163,2.2803353 73.30215,4.1889322 c 0.607281,0.260263 0.910922,1.2579386 1.344691,1.9085966 -0.672346,0.3470177 -1.323007,0.8892327 -2.017042,1.0193644 -0.975987,0.1735086 -1.973663,0.04338 -3.079777,0.04338 z"
   id="path6"
   style="fill:#b5ec46;fill-opacity:1;stroke-width:0.216886" /><path
   class="st1"
   d="m 126.0922,15.575447 c 1.84353,3.969014 3.62199,7.916341 5.48722,11.863663 1.36638,2.884585 1.38807,2.862898 4.33772,1.496516 3.77381,-1.735089 7.56932,-3.470176 11.36483,-5.183575 1.17118,-0.542217 1.95197,-0.238577 2.38574,1.019362 2.40743,6.96204 0.52053,11.646779 -6.33308,16.374896 -5.14019,3.535242 -10.88767,5.552282 -16.87372,6.918661 -9.21766,2.082106 -16.11463,7.591014 -22.23082,14.422924 -1.53989,1.713396 -3.07978,3.405108 -4.663049,5.07513 -0.780789,0.845853 -1.561578,0.585592 -2.320678,-0.151823 -3.882261,-3.795502 -7.93803,-7.352433 -12.752898,-9.955067 -1.019366,-0.542213 -2.16886,-0.845853 -3.188226,-1.366381 -0.455459,-0.238572 -1.019361,-0.650656 -1.127805,-1.062741 -0.08675,-0.390394 0.260262,-1.01936 0.607282,-1.344691 6.289693,-5.769171 12.96978,-11.147943 18.175043,-18.044917 3.296671,-4.359411 5.096821,-9.282722 6.745161,-14.379544 0.93261,-2.862894 2.21223,-5.639036 3.40511,-8.415177 2.32068,-5.4004608 7.00542,-8.2633562 12.01548,-10.4539045 2.77614,-1.2145616 5.85592,-1.82184253 8.87064,-2.29899162 4.22928,-0.65065804 9.30441,2.32067992 11.27807,6.13787362 0.60728,1.1711843 0.49884,1.951974 -0.7591,2.5375664 -4.64136,2.1688601 -9.26103,4.3377201 -13.8807,6.5282681 -0.15183,0.08676 -0.30364,0.173509 -0.54222,0.281952 z m 1.93029,21.797043 c -0.0868,-0.30364 -0.0868,-0.433771 -0.13014,-0.520524 -1.47482,-3.036405 -2.90627,-6.094498 -4.44616,-9.109215 -0.17351,-0.325327 -1.06274,-0.650658 -1.40976,-0.477148 -3.53524,1.604956 -7.04879,3.296666 -10.51897,5.053446 -0.34701,0.173507 -0.67235,1.127805 -0.49884,1.496512 1.32301,2.949651 2.73277,5.87761 4.25097,8.740507 0.21689,0.390394 1.21456,0.802478 1.58327,0.628968 3.47017,-1.561579 6.89697,-3.253289 10.32377,-4.945001 0.3687,-0.151821 0.60728,-0.607281 0.84586,-0.867545 z"
   id="path8"
   style="fill:#b5ec46;fill-opacity:1;stroke-width:0.216886" /><path
   class="st1"
   d="m 35.195278,129.48398 c -10.584038,0 -17.958162,-10.54066 -13.577064,-19.82338 1.149495,-2.40744 3.470176,-4.33772 5.487217,-6.24632 5.899301,-5.57397 11.907043,-11.0395 17.871406,-16.526714 5.378774,-4.945001 10.735856,-9.911693 16.114632,-14.856694 0.824163,-0.7591 1.886903,-0.498833 2.060416,0.520528 0.997671,5.682411 4.229277,10.10689 7.938025,14.271102 1.192874,1.323002 2.515881,2.537565 3.773818,3.795503 0.759099,0.759104 0.910922,1.539888 0.130128,2.407436 -6.181249,6.745152 -12.254055,13.555369 -18.522063,20.213779 -4.381095,4.64136 -8.957389,9.10921 -13.511996,13.57706 -2.125483,2.06041 -4.858244,2.6677 -7.764519,2.6677 z m -5.530593,-14.29279 c 0.02168,2.84121 2.515879,5.31371 5.313706,5.24864 2.862898,-0.0651 5.313709,-2.51588 5.270332,-5.3137 -0.04337,-2.77615 -2.472501,-5.22696 -5.248642,-5.27034 -2.841207,-0.0217 -5.357086,2.4725 -5.335396,5.3354 z"
   id="path10"
   style="fill:#b5ec46;fill-opacity:1;stroke-width:0.216886" />
<g
   aria-label="AlexGyver"
   id="text845"
   style="font-size:85.3478px;line-height:1.25;font-family:'Comic Sans MS';-inkscape-font-specification:'Comic Sans MS';letter-spacing:-3px;word-spacing:0px;fill:#b5ec46;fill-opacity:1;stroke-width:2.1337"><path
     d="m 202.42861,77.657318 q -0.93883,-3.072521 -2.1337,-6.315737 -1.10952,-3.243217 -2.21904,-6.486433 h -23.04391 q -1.10952,3.243216 -2.30439,6.486433 -1.10952,3.243216 -2.04834,6.315737 h -13.82635 q 3.32857,-9.558954 6.31574,-17.666995 2.98717,-8.108041 5.80365,-15.277256 2.90183,-7.169215 5.63296,-13.570301 2.81647,-6.486432 5.80365,-12.631474 h 12.71682 q 2.90182,6.145042 5.7183,12.631474 2.81648,6.401086 5.63296,13.570301 2.90182,7.169215 5.88899,15.277256 2.98718,8.108041 6.31574,17.666995 z M 186.46857,31.910897 q -0.42674,1.280217 -1.28022,3.49926 -0.85348,2.219042 -1.963,5.120868 -1.10952,2.901825 -2.47508,6.401085 -1.28022,3.49926 -2.64578,7.339911 H 194.918 q -1.36556,-3.840651 -2.64578,-7.339911 -1.28022,-3.49926 -2.47509,-6.401085 -1.10952,-2.901826 -1.963,-5.120868 -0.85347,-2.219043 -1.36556,-3.49926 z"
     style="font-style:normal;font-variant:normal;font-weight:bold;font-stretch:normal;font-family:Ubuntu;-inkscape-font-specification:'Ubuntu Bold';fill:#b5ec46;fill-opacity:1;stroke-width:2.1337"
     id="path931" /><path
     d="m 238.43245,78.510796 q -5.54761,-0.08535 -9.04687,-1.194869 -3.41391,-1.109522 -5.46226,-3.072521 -1.963,-2.048347 -2.73113,-4.864825 -0.68278,-2.901825 -0.68278,-6.486432 V 13.475772 l 12.71682,-2.048348 v 48.90429 q 0,1.706956 0.25605,3.072521 0.25604,1.365565 0.93882,2.304391 0.76813,0.938826 2.1337,1.53626 1.36556,0.597435 3.66995,0.768131 z"
     style="font-style:normal;font-variant:normal;font-weight:bold;font-stretch:normal;font-family:Ubuntu;-inkscape-font-specification:'Ubuntu Bold';fill:#b5ec46;fill-opacity:1;stroke-width:2.1337"
     id="path933" /><path
     d="m 242.34562,55.552238 q 0,-5.974346 1.7923,-10.412432 1.87765,-4.523434 4.86483,-7.510607 2.98717,-2.987173 6.82782,-4.523433 3.926,-1.536261 8.02269,-1.536261 9.55896,0 15.10656,5.888999 5.54761,5.80365 5.54761,17.154908 0,1.109521 -0.0854,2.475086 -0.0853,1.280217 -0.17069,2.304391 h -28.84756 q 0.42674,3.925999 3.66996,6.230389 3.24321,2.304391 8.70547,2.304391 3.49926,0 6.82783,-0.597435 3.41391,-0.682782 5.5476,-1.621608 l 1.70696,10.327084 q -1.02417,0.512087 -2.73113,1.024174 -1.70696,0.512086 -3.84065,0.853478 -2.04835,0.426739 -4.43809,0.682782 -2.38974,0.256043 -4.77947,0.256043 -6.0597,0 -10.58313,-1.792303 -4.43809,-1.792304 -7.42526,-4.864825 -2.90182,-3.157869 -4.35274,-7.425259 -1.36556,-4.26739 -1.36556,-9.217562 z m 29.87173,-4.864825 q -0.0854,-1.621608 -0.59744,-3.157869 -0.42674,-1.53626 -1.45091,-2.731129 -0.93882,-1.19487 -2.47509,-1.963 -1.45091,-0.76813 -3.66995,-0.76813 -2.1337,0 -3.66996,0.76813 -1.53626,0.682783 -2.56043,1.877652 -1.02417,1.194869 -1.62161,2.816477 -0.51209,1.536261 -0.76813,3.157869 z"
     style="font-style:normal;font-variant:normal;font-weight:bold;font-stretch:normal;font-family:Ubuntu;-inkscape-font-specification:'Ubuntu Bold';fill:#b5ec46;fill-opacity:1;stroke-width:2.1337"
     id="path935" /><path
     d="m 309.16009,46.420023 8.87617,-13.655648 h 13.14356 l -15.3626,21.592993 q 5.12087,6.401085 9.30291,12.460779 4.18204,6.059694 6.65713,10.839171 h -13.65565 q -0.68278,-1.280217 -1.70696,-3.157869 -1.02417,-1.962999 -2.30439,-4.011346 -1.28022,-2.133695 -2.73113,-4.182042 -1.36556,-2.133695 -2.73113,-3.840651 -1.28021,1.621608 -2.64578,3.584607 -1.28022,1.963 -2.47509,4.011347 -1.19486,1.962999 -2.38973,3.925999 -1.10953,1.962999 -1.963,3.669955 h -12.97287 q 1.02417,-2.133695 2.81648,-5.03552 1.7923,-2.901825 3.84065,-5.974346 2.13369,-3.157869 4.43809,-6.23039 2.30439,-3.157868 4.52343,-5.888998 -3.84065,-5.376911 -7.6813,-10.839171 -3.84065,-5.547607 -7.59596,-10.924518 h 13.741 z"
     style="font-style:normal;font-variant:normal;font-weight:bold;font-stretch:normal;font-family:Ubuntu;-inkscape-font-specification:'Ubuntu Bold';fill:#b5ec46;fill-opacity:1;stroke-width:2.1337"
     id="path937" /><path
     d="m 365.30603,28.753028 q -9.30291,0 -13.48496,5.206216 -4.09669,5.120868 -4.09669,14.082387 0,4.352738 1.02417,7.937346 1.02418,3.499259 3.07252,6.059693 2.04835,2.560435 5.12087,4.011347 3.07252,1.365565 7.16922,1.365565 2.21904,0 3.7553,-0.08535 1.62161,-0.08535 2.81648,-0.341391 v -20.56882 h 13.31426 v 29.274296 q -2.38974,0.938826 -7.68131,1.962999 -5.29156,1.109522 -13.05821,1.109522 -6.65713,0 -12.11939,-2.048348 -5.37691,-2.048347 -9.21756,-5.974346 -3.84065,-3.925999 -5.97435,-9.644301 -2.04834,-5.718303 -2.04834,-13.058214 0,-7.425259 2.30439,-13.143561 2.30439,-5.718303 6.31573,-9.644302 4.01135,-4.011346 9.38826,-6.059694 5.46226,-2.048347 11.6073,-2.048347 4.18205,0 7.51061,0.597435 3.41391,0.512086 5.80365,1.280217 2.47509,0.682782 4.01135,1.450912 1.6216,0.768131 2.30439,1.19487 l -3.84065,10.668475 q -2.73113,-1.450913 -6.31574,-2.475087 -3.49926,-1.109521 -7.6813,-1.109521 z"
     style="font-style:normal;font-variant:normal;font-weight:bold;font-stretch:normal;font-family:Ubuntu;-inkscape-font-specification:'Ubuntu Bold';fill:#b5ec46;fill-opacity:1;stroke-width:2.1337"
     id="path939" /><path
     d="m 431.43759,32.764375 q -3.84065,12.972865 -8.02269,24.324123 -4.18205,11.351258 -9.13222,22.019733 -1.7923,3.840651 -3.58461,6.486433 -1.7923,2.731129 -3.926,4.438085 -2.13369,1.792304 -4.86482,2.560434 -2.64578,0.853478 -6.23039,0.853478 -2.98717,0 -5.54761,-0.597434 -2.47508,-0.512087 -4.09669,-1.194869 l 2.21904,-10.156389 q 1.963,0.682783 3.49926,0.938826 1.53626,0.256043 3.24322,0.256043 3.41391,0 5.20621,-1.877651 1.87766,-1.792304 3.15787,-5.035521 -4.35274,-8.53478 -8.70547,-19.117907 -4.35274,-10.668475 -8.19339,-23.897384 h 13.48495 q 0.85348,3.328564 1.963,7.254563 1.19487,3.840651 2.47509,7.851997 1.28021,3.925999 2.56043,7.681303 1.36556,3.755303 2.56043,6.827824 1.10953,-3.072521 2.30439,-6.827824 1.19487,-3.755304 2.3044,-7.681303 1.19486,-4.011346 2.21904,-7.851997 1.10952,-3.925999 1.963,-7.254563 z"
     style="font-style:normal;font-variant:normal;font-weight:bold;font-stretch:normal;font-family:Ubuntu;-inkscape-font-specification:'Ubuntu Bold';fill:#b5ec46;fill-opacity:1;stroke-width:2.1337"
     id="path941" /><path
     d="m 449.1769,77.657318 q -4.35274,-8.53478 -8.87617,-19.971385 -4.43809,-11.436606 -8.44943,-24.921558 h 13.48495 q 0.85348,3.328564 1.963,7.254563 1.19487,3.840651 2.38974,7.851997 1.28021,3.925999 2.47508,7.681303 1.28022,3.755303 2.47509,6.827824 1.10952,-3.072521 2.38974,-6.827824 1.28021,-3.755304 2.47508,-7.681303 1.28022,-4.011346 2.38974,-7.851997 1.19487,-3.925999 2.04835,-7.254563 h 13.14356 q -4.01135,13.484952 -8.53478,24.921558 -4.43809,11.436605 -8.79082,19.971385 z"
     style="font-style:normal;font-variant:normal;font-weight:bold;font-stretch:normal;font-family:Ubuntu;-inkscape-font-specification:'Ubuntu Bold';fill:#b5ec46;fill-opacity:1;stroke-width:2.1337"
     id="path943" /><path
     d="m 477.58465,55.552238 q 0,-5.974346 1.79231,-10.412432 1.87765,-4.523434 4.86482,-7.510607 2.98718,-2.987173 6.82783,-4.523433 3.926,-1.536261 8.02269,-1.536261 9.55895,0 15.10656,5.888999 5.54761,5.80365 5.54761,17.154908 0,1.109521 -0.0854,2.475086 -0.0853,1.280217 -0.1707,2.304391 h -28.84755 q 0.42674,3.925999 3.66995,6.230389 3.24322,2.304391 8.70548,2.304391 3.49926,0 6.82782,-0.597435 3.41392,-0.682782 5.54761,-1.621608 l 1.70696,10.327084 q -1.02418,0.512087 -2.73113,1.024174 -1.70696,0.512086 -3.84065,0.853478 -2.04835,0.426739 -4.43809,0.682782 -2.38974,0.256043 -4.77948,0.256043 -6.05969,0 -10.58312,-1.792303 -4.43809,-1.792304 -7.42526,-4.864825 -2.90183,-3.157869 -4.35274,-7.425259 -1.36557,-4.26739 -1.36557,-9.217562 z m 29.87173,-4.864825 q -0.0853,-1.621608 -0.59743,-3.157869 -0.42674,-1.53626 -1.45091,-2.731129 -0.93883,-1.19487 -2.47509,-1.963 -1.45091,-0.76813 -3.66995,-0.76813 -2.1337,0 -3.66996,0.76813 -1.53626,0.682783 -2.56043,1.877652 -1.02418,1.194869 -1.62161,2.816477 -0.51209,1.536261 -0.76813,3.157869 z"
     style="font-style:normal;font-variant:normal;font-weight:bold;font-stretch:normal;font-family:Ubuntu;-inkscape-font-specification:'Ubuntu Bold';fill:#b5ec46;fill-opacity:1;stroke-width:2.1337"
     id="path945" /><path
     d="m 553.61668,44.030284 q -1.70696,-0.426739 -4.01135,-0.853478 -2.30439,-0.512086 -4.95017,-0.512086 -1.19487,0 -2.90182,0.256043 -1.62161,0.170696 -2.47509,0.426739 V 77.657318 H 526.56143 V 35.154113 q 3.41391,-1.194869 8.02269,-2.219043 4.69413,-1.109521 10.41243,-1.109521 1.02418,0 2.47509,0.170695 1.45091,0.08535 2.90182,0.341392 1.45092,0.170695 2.90183,0.512086 1.45091,0.256044 2.47509,0.682783 z"
     style="font-style:normal;font-variant:normal;font-weight:bold;font-stretch:normal;font-family:Ubuntu;-inkscape-font-specification:'Ubuntu Bold';fill:#b5ec46;fill-opacity:1;stroke-width:2.1337"
     id="path947" /><g
     aria-label="V2.0"
     id="text858"
     style="font-style:normal;font-weight:normal;font-size:43.1381px;line-height:1.25;font-family:sans-serif;letter-spacing:0px;fill:#b5ec46;fill-opacity:1;stroke:none;stroke-width:2.30109"><path
       d="m 476.50238,109.65893 q -0.0843,0.2317 -0.2317,0.37915 -0.14745,0.14744 -0.42127,0.2317 -0.25276,0.0842 -0.67403,0.10531 -0.40021,0.0421 -1.01105,0.0421 -0.4634,0 -0.82148,-0.0211 -0.33702,0 -0.58978,-0.0421 -0.25276,-0.0421 -0.44233,-0.0842 -0.16851,-0.0632 -0.29489,-0.14745 -0.12638,-0.0843 -0.21064,-0.18957 -0.0632,-0.12638 -0.12638,-0.29489 l -8.90987,-25.318366 q -0.16851,-0.463398 -0.18957,-0.737224 0,-0.294889 0.18957,-0.442334 0.18957,-0.147445 0.61084,-0.189572 0.42127,-0.04213 1.13743,-0.04213 0.58978,0 0.9268,0.04213 0.35808,0.02106 0.54765,0.105318 0.18957,0.08425 0.27382,0.231699 0.10532,0.126381 0.18958,0.337016 l 7.81456,22.938183 h 0.0211 l 7.60393,-22.896056 q 0.0632,-0.231699 0.14744,-0.379143 0.0843,-0.147445 0.29489,-0.231699 0.21064,-0.08425 0.58978,-0.105318 0.37915,-0.04213 1.01105,-0.04213 0.65297,0 1.03211,0.06319 0.37915,0.04213 0.50553,0.189572 0.14744,0.147444 0.10532,0.442334 -0.0211,0.273826 -0.18957,0.737223 z"
       style="font-style:normal;font-variant:normal;font-weight:normal;font-stretch:normal;font-family:Calibri;-inkscape-font-specification:Calibri;fill:#b5ec46;fill-opacity:1;stroke-width:2.30109"
       id="path860" /><path
       d="m 505.80174,108.73214 q 0,0.37914 -0.0632,0.67403 -0.0421,0.29489 -0.14744,0.50553 -0.0843,0.18957 -0.25277,0.29489 -0.14744,0.0842 -0.33701,0.0842 H 489.9409 q -0.29489,0 -0.52659,-0.0632 -0.21064,-0.0842 -0.37914,-0.25276 -0.14745,-0.16851 -0.2317,-0.48446 -0.0632,-0.31596 -0.0632,-0.77935 0,-0.42127 0.0211,-0.73723 0.0421,-0.31595 0.14744,-0.54765 0.10532,-0.25276 0.25277,-0.48446 0.1685,-0.25276 0.42127,-0.52659 l 5.28694,-5.6029 q 1.83253,-1.937841 2.92783,-3.475478 1.11637,-1.537637 1.70615,-2.801449 0.61084,-1.263811 0.80041,-2.295924 0.18957,-1.032113 0.18957,-1.937844 0,-0.905732 -0.29489,-1.706146 -0.29489,-0.821477 -0.8636,-1.43232 -0.54765,-0.610842 -1.39019,-0.968922 -0.84254,-0.35808 -1.93785,-0.35808 -1.28487,0 -2.31699,0.35808 -1.01104,0.35808 -1.7904,0.779351 -0.75828,0.42127 -1.28487,0.77935 -0.50552,0.35808 -0.75829,0.35808 -0.14744,0 -0.27382,-0.08425 -0.10532,-0.08425 -0.18957,-0.273826 -0.0632,-0.189572 -0.10532,-0.505524 -0.0421,-0.315953 -0.0421,-0.758287 0,-0.315953 0.0211,-0.547652 0.0211,-0.231699 0.0632,-0.400207 0.0632,-0.168508 0.14745,-0.315953 0.0842,-0.147445 0.33702,-0.35808 0.25276,-0.231699 0.8636,-0.610842 0.63191,-0.379143 1.5587,-0.737223 0.94786,-0.379144 2.06423,-0.631906 1.13743,-0.252762 2.38018,-0.252762 1.97997,0 3.45441,0.568715 1.49551,0.547651 2.46444,1.516574 0.98998,0.968922 1.47444,2.253797 0.48446,1.284875 0.48446,2.738258 0,1.305939 -0.2317,2.611877 -0.23169,1.284875 -0.98998,2.801449 -0.73722,1.49551 -2.14848,3.3491 -1.41126,1.832524 -3.74931,4.233764 l -4.31802,4.5076 h 11.85876 q 0.16851,0 0.31596,0.10531 0.16851,0.0843 0.27382,0.27383 0.12638,0.18957 0.16851,0.48446 0.0632,0.27383 0.0632,0.65297 z"
       style="font-style:normal;font-variant:normal;font-weight:normal;font-stretch:normal;font-family:Calibri;-inkscape-font-specification:Calibri;fill:#b5ec46;fill-opacity:1;stroke-width:2.30109"
       id="path862" /><path
       d="m 515.91223,107.99492 q 0,1.49551 -0.50552,2.00103 -0.48446,0.48446 -1.7904,0.48446 -1.26381,0 -1.74827,-0.48446 -0.48446,-0.48446 -0.48446,-1.93784 0,-1.49551 0.48446,-1.97997 0.50552,-0.50553 1.81146,-0.50553 1.26381,0 1.74827,0.48446 0.48446,0.48446 0.48446,1.93785 z"
       style="font-style:normal;font-variant:normal;font-weight:normal;font-stretch:normal;font-family:Calibri;-inkscape-font-specification:Calibri;fill:#b5ec46;fill-opacity:1;stroke-width:2.30109"
       id="path864" /><path
       d="m 539.46126,96.599549 q 0,3.138465 -0.50553,5.729281 -0.48446,2.59081 -1.64295,4.46546 -1.13743,1.8536 -2.99102,2.88571 -1.8536,1.01105 -4.57079,1.01105 -2.56975,0 -4.33909,-0.90573 -1.74827,-0.9268 -2.82251,-2.69614 -1.07424,-1.7904 -1.53764,-4.38121 -0.44233,-2.61188 -0.44233,-5.98204 0,-3.117402 0.50552,-5.708215 0.50553,-2.611878 1.64296,-4.465468 1.13743,-1.874654 2.99102,-2.885703 1.85359,-1.032112 4.54972,-1.032112 2.59082,0 4.33909,0.926795 1.76933,0.905731 2.84357,2.696131 1.07424,1.769336 1.51658,4.381213 0.4634,2.590814 0.4634,5.960978 z m -3.70719,0.252762 q 0,-2.043162 -0.14744,-3.665053 -0.14744,-1.621892 -0.44233,-2.86464 -0.27383,-1.242748 -0.73723,-2.127416 -0.44233,-0.905731 -1.07424,-1.474447 -0.6319,-0.589778 -1.45338,-0.842541 -0.80041,-0.273825 -1.81146,-0.273825 -1.7904,0 -2.90677,0.842541 -1.11637,0.842541 -1.76934,2.316987 -0.6319,1.474447 -0.8636,3.454419 -0.2317,1.979971 -0.2317,4.254832 0,3.054211 0.31595,5.202692 0.31596,2.12741 0.98999,3.47548 0.6951,1.34807 1.74827,1.95891 1.07424,0.61084 2.59082,0.61084 1.17955,0 2.06422,-0.37914 0.90573,-0.37915 1.53764,-1.07424 0.65297,-0.71616 1.07424,-1.70615 0.42127,-0.98998 0.67403,-2.19061 0.25276,-1.20062 0.33702,-2.590809 0.10531,-1.411256 0.10531,-2.92783 z"
       style="font-style:normal;font-variant:normal;font-weight:normal;font-stretch:normal;font-family:Calibri;-inkscape-font-specification:Calibri;fill:#b5ec46;fill-opacity:1;stroke-width:2.30109"
       id="path866" /></g></g><g
   aria-label="Technologies"
   id="text849"
   style="font-size:43.4472px;line-height:1.25;font-family:'Comic Sans MS';-inkscape-font-specification:'Comic Sans MS';fill:#b5ec46;fill-opacity:1;stroke-width:1.08619"><path
     d="m 177.39139,84.439694 q 0,0.403075 -0.0424,0.700077 -0.0424,0.297002 -0.1485,0.487932 -0.0849,0.169716 -0.23336,0.254574 -0.12729,0.08486 -0.297,0.08486 h -7.72206 v 23.802615 q 0,0.16972 -0.0849,0.297 -0.0849,0.12729 -0.297,0.21215 -0.21215,0.0636 -0.57279,0.10607 -0.33943,0.0636 -0.8698,0.0636 -0.50914,0 -0.86979,-0.0636 -0.36064,-0.0424 -0.57279,-0.10607 -0.21214,-0.0849 -0.297,-0.21215 -0.0849,-0.12728 -0.0849,-0.297 V 85.967135 h -7.72206 q -0.16972,0 -0.31822,-0.08486 -0.12728,-0.08486 -0.21214,-0.254574 -0.0849,-0.19093 -0.1485,-0.487932 -0.0424,-0.297002 -0.0424,-0.700077 0,-0.403075 0.0424,-0.700077 0.0636,-0.318217 0.1485,-0.509147 0.0849,-0.19093 0.21214,-0.275788 0.1485,-0.08486 0.31822,-0.08486 h 19.09301 q 0.16971,0 0.297,0.08486 0.1485,0.08486 0.23336,0.275788 0.10607,0.19093 0.1485,0.509147 0.0424,0.297002 0.0424,0.700077 z"
     style="font-style:normal;font-variant:normal;font-weight:normal;font-stretch:normal;font-family:Calibri;-inkscape-font-specification:Calibri;fill:#b5ec46;fill-opacity:1;stroke-width:1.08619"
     id="path950" /><path
     d="m 193.38709,99.417098 q 0,0.827362 -0.42429,1.188012 -0.40308,0.33943 -0.93344,0.33943 h -12.51653 q 0,1.59108 0.31822,2.86395 0.31822,1.27287 1.06072,2.18509 0.74251,0.91222 1.93052,1.40015 1.18801,0.48794 2.90638,0.48794 1.35772,0 2.41845,-0.21215 1.06072,-0.23336 1.82444,-0.50915 0.78494,-0.27578 1.27287,-0.48793 0.50914,-0.23336 0.76372,-0.23336 0.1485,0 0.25457,0.0849 0.12729,0.0636 0.19093,0.21214 0.0636,0.14851 0.0849,0.42429 0.0424,0.25458 0.0424,0.63644 0,0.27579 -0.0212,0.48793 -0.0212,0.19093 -0.0636,0.36065 -0.0212,0.1485 -0.10607,0.27578 -0.0636,0.12729 -0.19093,0.25458 -0.10607,0.10607 -0.67886,0.38186 -0.57279,0.25457 -1.48502,0.50914 -0.91222,0.25458 -2.12144,0.44551 -1.18801,0.21214 -2.54574,0.21214 -2.3548,0 -4.13681,-0.65765 -1.7608,-0.65764 -2.97003,-1.95173 -1.20922,-1.29408 -1.82444,-3.24581 -0.61522,-1.95173 -0.61522,-4.53989 0,-2.460877 0.63643,-4.412607 0.63644,-1.972944 1.82445,-3.330669 1.20922,-1.378939 2.90638,-2.100231 1.69715,-0.742506 3.79738,-0.742506 2.24874,0 3.81861,0.721292 1.59108,0.721291 2.60937,1.951729 1.0183,1.209224 1.48501,2.863952 0.48794,1.633513 0.48794,3.500385 z m -3.5216,-1.039508 q 0.0636,-2.757879 -1.23044,-4.327749 -1.27287,-1.569869 -3.79739,-1.569869 -1.29408,0 -2.26994,0.487932 -0.97587,0.487933 -1.63352,1.294082 -0.65764,0.806149 -1.01829,1.888086 -0.36065,1.060723 -0.40308,2.227518 z"
     style="font-style:normal;font-variant:normal;font-weight:normal;font-stretch:normal;font-family:Calibri;-inkscape-font-specification:Calibri;fill:#b5ec46;fill-opacity:1;stroke-width:1.08619"
     id="path952" /><path
     d="m 212.43767,106.88459 q 0,0.36064 -0.0212,0.63643 -0.0212,0.25457 -0.0849,0.4455 -0.0424,0.16972 -0.12728,0.31822 -0.0636,0.12729 -0.33943,0.40307 -0.25458,0.25458 -0.89101,0.65765 -0.63644,0.38186 -1.44258,0.70008 -0.78494,0.297 -1.71838,0.48793 -0.93343,0.19093 -1.93051,0.19093 -2.0578,0 -3.64889,-0.67886 -1.59108,-0.67886 -2.67302,-1.97294 -1.06072,-1.3153 -1.63351,-3.20339 -0.55158,-1.9093 -0.55158,-4.39139 0,-2.821522 0.67887,-4.836895 0.70007,-2.036587 1.88808,-3.330669 1.20923,-1.294081 2.82152,-1.909301 1.63352,-0.636433 3.5216,-0.636433 0.91223,0 1.7608,0.169715 0.8698,0.169716 1.59109,0.445504 0.72129,0.275788 1.27286,0.636434 0.57279,0.360645 0.82737,0.615219 0.25457,0.254573 0.33943,0.403074 0.10607,0.148501 0.16972,0.360646 0.0636,0.19093 0.0849,0.445504 0.0212,0.254573 0.0212,0.636433 0,0.827364 -0.19093,1.166795 -0.19093,0.318217 -0.46672,0.318217 -0.31822,0 -0.74251,-0.339431 -0.40307,-0.360646 -1.0395,-0.784935 -0.63644,-0.424289 -1.54866,-0.76372 -0.89101,-0.360646 -2.12145,-0.360646 -2.52451,0 -3.88224,1.95173 -1.33651,1.930515 -1.33651,5.621829 0,1.84566 0.33943,3.24581 0.36065,1.37894 1.03951,2.31238 0.67886,0.93343 1.65473,1.40015 0.99708,0.4455 2.26994,0.4455 1.20923,0 2.12145,-0.38186 0.91222,-0.38186 1.56987,-0.82736 0.67886,-0.46672 1.12436,-0.82736 0.46672,-0.38186 0.7213,-0.38186 0.1485,0 0.25457,0.0849 0.10607,0.0848 0.16971,0.297 0.0849,0.19093 0.10608,0.50914 0.0424,0.29701 0.0424,0.7213 z"
     style="font-style:normal;font-variant:normal;font-weight:normal;font-stretch:normal;font-family:Calibri;-inkscape-font-specification:Calibri;fill:#b5ec46;fill-opacity:1;stroke-width:1.08619"
     id="path954" /><path
     d="m 233.52483,109.79097 q 0,0.16971 -0.0849,0.297 -0.0849,0.10607 -0.27579,0.19093 -0.19093,0.0849 -0.53036,0.12729 -0.33943,0.0424 -0.84858,0.0424 -0.53036,0 -0.86979,-0.0424 -0.33943,-0.0424 -0.53036,-0.12729 -0.19093,-0.0849 -0.27579,-0.19093 -0.0849,-0.12729 -0.0849,-0.297 V 98.610949 q 0,-1.633513 -0.25457,-2.630592 -0.25458,-0.99708 -0.74251,-1.718371 -0.48793,-0.721292 -1.27287,-1.103152 -0.76372,-0.38186 -1.78201,-0.38186 -1.3153,0 -2.63059,0.933436 -1.3153,0.933436 -2.75788,2.736665 v 13.343895 q 0,0.16971 -0.0849,0.297 -0.0849,0.10607 -0.27579,0.19093 -0.19093,0.0849 -0.53036,0.12729 -0.33943,0.0424 -0.86979,0.0424 -0.50915,0 -0.84858,-0.0424 -0.33943,-0.0424 -0.55158,-0.12729 -0.19093,-0.0849 -0.27578,-0.19093 -0.0636,-0.12729 -0.0636,-0.297 V 81.448456 q 0,-0.169716 0.0636,-0.297002 0.0849,-0.127287 0.27578,-0.212145 0.21215,-0.08486 0.55158,-0.127287 0.33943,-0.04243 0.84858,-0.04243 0.53036,0 0.86979,0.04243 0.33943,0.04243 0.53036,0.127287 0.19093,0.08486 0.27579,0.212145 0.0849,0.127286 0.0849,0.297002 v 11.43459 q 1.50622,-1.591084 3.03367,-2.354804 1.52744,-0.784935 3.07609,-0.784935 1.9093,0 3.20338,0.657648 1.3153,0.636434 2.12145,1.718371 0.80615,1.081937 1.14558,2.545735 0.36064,1.442582 0.36064,3.500384 z"
     style="font-style:normal;font-variant:normal;font-weight:normal;font-stretch:normal;font-family:Calibri;-inkscape-font-specification:Calibri;fill:#b5ec46;fill-opacity:1;stroke-width:1.08619"
     id="path956" /><path
     d="m 256.35159,109.79097 q 0,0.16971 -0.0849,0.297 -0.0849,0.10607 -0.27579,0.19093 -0.19093,0.0849 -0.53036,0.12729 -0.33943,0.0424 -0.84858,0.0424 -0.53036,0 -0.86979,-0.0424 -0.33943,-0.0424 -0.53036,-0.12729 -0.19093,-0.0849 -0.27579,-0.19093 -0.0849,-0.12729 -0.0849,-0.297 V 98.610949 q 0,-1.633513 -0.25457,-2.630592 -0.25458,-0.99708 -0.74251,-1.718371 -0.48793,-0.721292 -1.27286,-1.103152 -0.76373,-0.38186 -1.78202,-0.38186 -1.3153,0 -2.63059,0.933436 -1.3153,0.933436 -2.75788,2.736665 v 13.343895 q 0,0.16971 -0.0849,0.297 -0.0849,0.10607 -0.27579,0.19093 -0.19093,0.0849 -0.53036,0.12729 -0.33943,0.0424 -0.86979,0.0424 -0.50915,0 -0.84858,-0.0424 -0.33943,-0.0424 -0.55157,-0.12729 -0.19093,-0.0849 -0.27579,-0.19093 -0.0636,-0.12729 -0.0636,-0.297 V 90.697958 q 0,-0.169716 0.0636,-0.275788 0.0636,-0.127287 0.25457,-0.212145 0.19093,-0.106072 0.48793,-0.127286 0.29701,-0.04243 0.78494,-0.04243 0.46672,0 0.76372,0.04243 0.31822,0.02121 0.48793,0.127286 0.16972,0.08486 0.23336,0.212145 0.0849,0.106072 0.0849,0.275788 v 2.52452 q 1.6123,-1.803229 3.20338,-2.630593 1.6123,-0.848578 3.24581,-0.848578 1.9093,0 3.20338,0.657648 1.3153,0.636434 2.12145,1.718371 0.80615,1.081937 1.14558,2.545735 0.36065,1.442582 0.36065,3.47917 z"
     style="font-style:normal;font-variant:normal;font-weight:normal;font-stretch:normal;font-family:Calibri;-inkscape-font-specification:Calibri;fill:#b5ec46;fill-opacity:1;stroke-width:1.08619"
     id="path958" /><path
     d="m 280.49363,100.03232 q 0,2.33359 -0.61521,4.30653 -0.61522,1.95173 -1.84566,3.3731 -1.20923,1.42137 -3.05488,2.22752 -1.82445,0.78493 -4.24289,0.78493 -2.35481,0 -4.11561,-0.70008 -1.73958,-0.70007 -2.90638,-2.03658 -1.16679,-1.33651 -1.73958,-3.24581 -0.57279,-1.9093 -0.57279,-4.32775 0,-2.333592 0.594,-4.285322 0.61522,-1.972944 1.82444,-3.394313 1.23044,-1.421368 3.05489,-2.206303 1.82444,-0.784935 4.2641,-0.784935 2.3548,0 4.09439,0.700077 1.7608,0.700077 2.92759,2.036588 1.1668,1.33651 1.73959,3.245811 0.594,1.909301 0.594,4.306537 z m -3.69131,0.23336 q 0,-1.548659 -0.297,-2.927598 -0.27579,-1.37894 -0.93344,-2.418448 -0.65765,-1.039508 -1.78201,-1.633513 -1.12437,-0.615219 -2.80031,-0.615219 -1.54866,0 -2.67302,0.551576 -1.10315,0.551575 -1.82444,1.569869 -0.7213,0.99708 -1.08194,2.376019 -0.33943,1.37894 -0.33943,3.012454 0,1.56987 0.27578,2.94881 0.29701,1.37894 0.95465,2.41845 0.67887,1.01829 1.80323,1.63351 1.12437,0.594 2.80031,0.594 1.52744,0 2.65181,-0.55157 1.12436,-0.55158 1.84566,-1.54866 0.72129,-0.99708 1.06072,-2.37602 0.33943,-1.37894 0.33943,-3.03366 z"
     style="font-style:normal;font-variant:normal;font-weight:normal;font-stretch:normal;font-family:Calibri;-inkscape-font-specification:Calibri;fill:#b5ec46;fill-opacity:1;stroke-width:1.08619"
     id="path960" /><path
     d="m 289.14914,109.79097 q 0,0.16971 -0.0849,0.297 -0.0849,0.10607 -0.27579,0.19093 -0.19093,0.0849 -0.53036,0.12729 -0.33943,0.0424 -0.86979,0.0424 -0.50915,0 -0.84858,-0.0424 -0.33943,-0.0424 -0.55158,-0.12729 -0.19093,-0.0849 -0.27579,-0.19093 -0.0636,-0.12729 -0.0636,-0.297 V 81.448456 q 0,-0.169716 0.0636,-0.297002 0.0849,-0.127287 0.27579,-0.212145 0.21215,-0.08486 0.55158,-0.127287 0.33943,-0.04243 0.84858,-0.04243 0.53036,0 0.86979,0.04243 0.33943,0.04243 0.53036,0.127287 0.19093,0.08486 0.27579,0.212145 0.0849,0.127286 0.0849,0.297002 z"
     style="font-style:normal;font-variant:normal;font-weight:normal;font-stretch:normal;font-family:Calibri;-inkscape-font-specification:Calibri;fill:#b5ec46;fill-opacity:1;stroke-width:1.08619"
     id="path962" /><path
     d="m 313.37604,100.03232 q 0,2.33359 -0.61522,4.30653 -0.61522,1.95173 -1.84565,3.3731 -1.20923,1.42137 -3.05489,2.22752 -1.82444,0.78493 -4.24289,0.78493 -2.3548,0 -4.1156,-0.70008 -1.73959,-0.70007 -2.90638,-2.03658 -1.1668,-1.33651 -1.73959,-3.24581 -0.57279,-1.9093 -0.57279,-4.32775 0,-2.333592 0.59401,-4.285322 0.61522,-1.972944 1.82444,-3.394313 1.23044,-1.421368 3.05488,-2.206303 1.82445,-0.784935 4.26411,-0.784935 2.3548,0 4.09439,0.700077 1.7608,0.700077 2.92759,2.036588 1.1668,1.33651 1.73959,3.245811 0.594,1.909301 0.594,4.306537 z m -3.69131,0.23336 q 0,-1.548659 -0.297,-2.927598 -0.27579,-1.37894 -0.93344,-2.418448 -0.65765,-1.039508 -1.78201,-1.633513 -1.12437,-0.615219 -2.80031,-0.615219 -1.54866,0 -2.67302,0.551576 -1.10316,0.551575 -1.82445,1.569869 -0.72129,0.99708 -1.08193,2.376019 -0.33944,1.37894 -0.33944,3.012454 0,1.56987 0.27579,2.94881 0.29701,1.37894 0.95465,2.41845 0.67887,1.01829 1.80323,1.63351 1.12437,0.594 2.80031,0.594 1.52744,0 2.65181,-0.55157 1.12436,-0.55158 1.84565,-1.54866 0.7213,-0.99708 1.06073,-2.37602 0.33943,-1.37894 0.33943,-3.03366 z"
     style="font-style:normal;font-variant:normal;font-weight:normal;font-stretch:normal;font-family:Calibri;-inkscape-font-specification:Calibri;fill:#b5ec46;fill-opacity:1;stroke-width:1.08619"
     id="path964" /><path
     d="m 334.48442,91.56775 q 0,0.742506 -0.21214,1.081937 -0.19093,0.318217 -0.50915,0.318217 h -2.73667 q 0.74251,0.763721 1.03951,1.697157 0.297,0.912221 0.297,1.9093 0,1.654728 -0.53036,2.927595 -0.53036,1.272864 -1.52744,2.163874 -0.97586,0.86979 -2.33359,1.33651 -1.35772,0.46672 -3.01245,0.46672 -1.16679,0 -2.22752,-0.297 -1.03951,-0.31822 -1.6123,-0.78494 -0.38186,0.38186 -0.63643,0.86979 -0.23336,0.48794 -0.23336,1.12437 0,0.74251 0.67886,1.23044 0.70008,0.48793 1.84566,0.53036 l 4.9854,0.21214 q 1.42137,0.0424 2.60938,0.40308 1.18801,0.33943 2.0578,0.99708 0.86979,0.63643 1.35772,1.59108 0.48794,0.93344 0.48794,2.18509 0,1.3153 -0.55158,2.50331 -0.55158,1.18801 -1.69716,2.07901 -1.12436,0.91222 -2.88516,1.42137 -1.7608,0.53036 -4.15804,0.53036 -2.31237,0 -3.94588,-0.40307 -1.6123,-0.38186 -2.65181,-1.06072 -1.03951,-0.67887 -1.50623,-1.63352 -0.46671,-0.93343 -0.46671,-2.03659 0,-0.70007 0.16971,-1.35772 0.16972,-0.65765 0.50915,-1.25165 0.36064,-0.59401 0.86979,-1.12437 0.53036,-0.55157 1.20922,-1.08194 -1.0395,-0.53036 -1.54865,-1.33651 -0.48793,-0.80615 -0.48793,-1.73958 0,-1.29408 0.53036,-2.31238 0.53036,-1.01829 1.31529,-1.82444 -0.65764,-0.78493 -1.0395,-1.7608 -0.38186,-0.997079 -0.38186,-2.397233 0,-1.633513 0.55157,-2.927595 0.55158,-1.294081 1.52744,-2.185088 0.97587,-0.891007 2.33359,-1.357725 1.37894,-0.487933 2.99124,-0.487933 0.86979,0 1.6123,0.106072 0.76372,0.08486 1.42137,0.254574 h 5.77033 q 0.36064,0 0.53036,0.360646 0.19093,0.339431 0.19093,1.060722 z m -5.47333,5.027826 q 0,-1.95173 -1.08194,-3.033667 -1.06072,-1.103152 -3.03366,-1.103152 -1.0183,0 -1.78202,0.339432 -0.7425,0.339431 -1.25165,0.933436 -0.48793,0.594004 -0.74251,1.378939 -0.23335,0.76372 -0.23335,1.612299 0,1.888086 1.06072,2.970023 1.08193,1.081934 3.01245,1.081934 1.03951,0 1.80323,-0.31821 0.76372,-0.33943 1.25165,-0.912225 0.50915,-0.594005 0.74251,-1.357725 0.25457,-0.763721 0.25457,-1.591084 z m 1.7608,15.125904 q 0,-1.23044 -1.01829,-1.88809 -0.99708,-0.67886 -2.71545,-0.72129 l -4.94297,-0.16971 q -0.67886,0.53036 -1.12437,1.01829 -0.42429,0.46672 -0.67886,0.89101 -0.25457,0.4455 -0.36065,0.86979 -0.0849,0.42429 -0.0849,0.86979 0,1.37894 1.40015,2.07902 1.40015,0.72129 3.90346,0.72129 1.59108,0 2.65181,-0.31822 1.08193,-0.297 1.73958,-0.80614 0.65765,-0.50915 0.93344,-1.1668 0.297,-0.65765 0.297,-1.37894 z"
     style="font-style:normal;font-variant:normal;font-weight:normal;font-stretch:normal;font-family:Calibri;-inkscape-font-specification:Calibri;fill:#b5ec46;fill-opacity:1;stroke-width:1.08619"
     id="path966" /><path
     d="m 342.48226,109.79097 q 0,0.16971 -0.0849,0.297 -0.0849,0.10607 -0.27579,0.19093 -0.19093,0.0849 -0.53036,0.12729 -0.33943,0.0424 -0.86979,0.0424 -0.50915,0 -0.84858,-0.0424 -0.33943,-0.0424 -0.55158,-0.12729 -0.19093,-0.0849 -0.27579,-0.19093 -0.0636,-0.12729 -0.0636,-0.297 V 90.697958 q 0,-0.148501 0.0636,-0.275788 0.0849,-0.127287 0.27579,-0.212145 0.21215,-0.08486 0.55158,-0.127286 0.33943,-0.04243 0.84858,-0.04243 0.53036,0 0.86979,0.04243 0.33943,0.04243 0.53036,0.127286 0.19093,0.08486 0.27579,0.212145 0.0849,0.127287 0.0849,0.275788 z m 0.40308,-25.542206 q 0,1.230438 -0.46672,1.675942 -0.46672,0.445503 -1.71837,0.445503 -1.23044,0 -1.69716,-0.424289 -0.4455,-0.445503 -0.4455,-1.654727 0,-1.230439 0.46672,-1.675942 0.46672,-0.445504 1.71837,-0.445504 1.23044,0 1.67594,0.445504 0.46672,0.424289 0.46672,1.633513 z"
     style="font-style:normal;font-variant:normal;font-weight:normal;font-stretch:normal;font-family:Calibri;-inkscape-font-specification:Calibri;fill:#b5ec46;fill-opacity:1;stroke-width:1.08619"
     id="path968" /><path
     d="m 365.24538,99.417098 q 0,0.827362 -0.42429,1.188012 -0.40308,0.33943 -0.93344,0.33943 h -12.51653 q 0,1.59108 0.31822,2.86395 0.31822,1.27287 1.06072,2.18509 0.74251,0.91222 1.93052,1.40015 1.18801,0.48794 2.90638,0.48794 1.35772,0 2.41845,-0.21215 1.06072,-0.23336 1.82444,-0.50915 0.78493,-0.27578 1.27287,-0.48793 0.50914,-0.23336 0.76372,-0.23336 0.1485,0 0.25457,0.0849 0.12729,0.0636 0.19093,0.21214 0.0636,0.14851 0.0849,0.42429 0.0424,0.25458 0.0424,0.63644 0,0.27579 -0.0212,0.48793 -0.0212,0.19093 -0.0636,0.36065 -0.0212,0.1485 -0.10607,0.27578 -0.0636,0.12729 -0.19093,0.25458 -0.10608,0.10607 -0.67887,0.38186 -0.57279,0.25457 -1.48501,0.50914 -0.91222,0.25458 -2.12144,0.44551 -1.18801,0.21214 -2.54574,0.21214 -2.3548,0 -4.13682,-0.65765 -1.7608,-0.65764 -2.97002,-1.95173 -1.20922,-1.29408 -1.82444,-3.24581 -0.61522,-1.95173 -0.61522,-4.53989 0,-2.460877 0.63643,-4.412607 0.63643,-1.972944 1.82444,-3.330669 1.20923,-1.378939 2.90638,-2.100231 1.69716,-0.742506 3.79739,-0.742506 2.24873,0 3.8186,0.721292 1.59109,0.721291 2.60938,1.951729 1.01829,1.209224 1.48501,2.863952 0.48794,1.633513 0.48794,3.500385 z m -3.5216,-1.039508 q 0.0636,-2.757879 -1.23044,-4.327749 -1.27287,-1.569869 -3.79739,-1.569869 -1.29408,0 -2.26995,0.487932 -0.97586,0.487933 -1.63351,1.294082 -0.65765,0.806149 -1.01829,1.888086 -0.36065,1.060723 -0.40308,2.227518 z"
     style="font-style:normal;font-variant:normal;font-weight:normal;font-stretch:normal;font-family:Calibri;-inkscape-font-specification:Calibri;fill:#b5ec46;fill-opacity:1;stroke-width:1.08619"
     id="path970" /><path
     d="m 382.55636,104.59342 q 0,1.4638 -0.55157,2.60938 -0.53036,1.14558 -1.52744,1.93052 -0.99708,0.78493 -2.37602,1.18801 -1.37894,0.40307 -3.03367,0.40307 -1.01829,0 -1.95173,-0.16971 -0.91222,-0.1485 -1.65472,-0.38186 -0.7213,-0.25458 -1.23044,-0.50915 -0.50915,-0.27579 -0.74251,-0.48793 -0.23336,-0.21215 -0.33943,-0.59401 -0.10607,-0.38186 -0.10607,-1.03951 0,-0.40307 0.0424,-0.67886 0.0424,-0.27579 0.10607,-0.4455 0.0636,-0.16972 0.16971,-0.23336 0.12729,-0.0849 0.27579,-0.0849 0.23336,0 0.67886,0.297 0.46672,0.27579 1.12437,0.61522 0.67886,0.33943 1.59108,0.63644 0.91223,0.27578 2.10024,0.27578 0.891,0 1.61229,-0.19093 0.7213,-0.19093 1.25166,-0.55157 0.53036,-0.38186 0.80615,-0.95465 0.297,-0.57279 0.297,-1.35773 0,-0.80615 -0.42429,-1.35772 -0.40308,-0.55158 -1.08194,-0.97587 -0.67886,-0.42429 -1.52744,-0.7425 -0.84858,-0.33943 -1.7608,-0.70008 -0.89101,-0.36065 -1.7608,-0.80615 -0.84858,-0.466717 -1.52744,-1.124365 -0.67886,-0.657648 -1.10315,-1.56987 -0.40307,-0.912221 -0.40307,-2.185089 0,-1.124366 0.42428,-2.142659 0.44551,-1.039509 1.3153,-1.803229 0.86979,-0.784935 2.16387,-1.251653 1.3153,-0.466718 3.05489,-0.466718 0.76372,0 1.52744,0.127287 0.76372,0.127287 1.37894,0.318217 0.61522,0.19093 1.0395,0.424289 0.44551,0.212144 0.65765,0.38186 0.23336,0.169716 0.297,0.297002 0.0849,0.127287 0.10608,0.297003 0.0424,0.148501 0.0636,0.38186 0.0424,0.233359 0.0424,0.57279 0,0.360646 -0.0424,0.636434 -0.0212,0.254573 -0.10607,0.424289 -0.0636,0.169715 -0.16972,0.254573 -0.10607,0.06364 -0.23336,0.06364 -0.19093,0 -0.55157,-0.233359 -0.36065,-0.233359 -0.93344,-0.487933 -0.57279,-0.275788 -1.35772,-0.509147 -0.76372,-0.233359 -1.7608,-0.233359 -0.89101,0 -1.56987,0.212145 -0.67886,0.19093 -1.12437,0.57279 -0.42429,0.360646 -0.65765,0.869793 -0.21214,0.509147 -0.21214,1.103151 0,0.827364 0.42429,1.400154 0.42429,0.551576 1.10315,0.975865 0.67886,0.424289 1.54865,0.76372 0.8698,0.339432 1.7608,0.700077 0.91223,0.360646 1.78202,0.80615 0.89101,0.445508 1.56987,1.081938 0.67886,0.63643 1.08194,1.52744 0.42428,0.89101 0.42428,2.12144 z"
     style="font-style:normal;font-variant:normal;font-weight:normal;font-stretch:normal;font-family:Calibri;-inkscape-font-specification:Calibri;fill:#b5ec46;fill-opacity:1;stroke-width:1.08619"
     id="path972" /></g></svg>
