<svg xmlns="http://www.w3.org/2000/svg" id="telegram-icon" viewBox="0 0 20 16.5" width="20px" height="16px">
    <g>
      <path fill="#C8DAEA" d="M4.9,9.4l2.2,6.1c0,0,0.3,0.6,0.6,0.6c0.3,0,4.7-4.5,4.7-4.5l4.9-9.4L4.9,7.8L4.9,9.4z"></path>
    </g>
    <g>
      <path fill="#A9C6D8" d="M7.8,11l-0.4,4.5c0,0-0.2,1.4,1.2,0s2.7-2.4,2.7-2.4"></path>
    </g>
    <g>
      <g>
        <path fill="#FFFFFF" d="M4.9,9.6L0.4,8.1c0,0-0.5-0.2-0.4-0.7c0-0.1,0.1-0.2,0.3-0.3c1-0.7,18.5-7,18.5-7s0.5-0.2,0.8-0.1      c0.1,0,0.2,0.1,0.3,0.3c0,0.1,0,0.2,0,0.4c0,0.1,0,0.2,0,0.4c-0.1,1.7-3.3,14.6-3.3,14.6s-0.2,0.8-0.9,0.8c-0.3,0-0.5,0-0.9-0.4      c-1.3-1.2-6-4.3-7-5c-0.1,0-0.1-0.1-0.1-0.1c0-0.1,0.1-0.2,0.1-0.2s8.1-7.2,8.3-7.9c0-0.1,0-0.1-0.1-0.1C15.5,3.1,6.2,8.9,5.2,9.6      C5.1,9.7,4.9,9.6,4.9,9.6z"></path>
      </g>
    </g>
  </svg>