<?xml version="1.0" encoding="utf-8"?>
<!-- Generator: Adobe Illustrator 26.2.1, SVG Export Plug-In . SVG Version: 6.00 Build 0)  -->
<svg version="1.1" id="Layer_1" xmlns="http://www.w3.org/2000/svg" xmlns:xlink="http://www.w3.org/1999/xlink" x="0px" y="0px"
	 viewBox="0 0 5826.6 1000" style="enable-background:new 0 0 5826.6 1000;" xml:space="preserve">
<style type="text/css">
	.st0{fill:none;}
</style>
<g>
	<path d="M1430.1,387.2h-201.5V238.6h570.1v148.6h-201.4v427.1h-167.1V387.2z"/>
	<path d="M4942.8,219.7h-5.4V27.1h-167.1v192.7h-1.5c-167.9,0-289.4,108.3-289.4,305.6c0,201.2,119.9,306.4,284,307.2c0,0,5.4,0,7,0
		V1000h167.1V832.6h5.4c200.4,0,285.5-126.9,285.5-307.2C5228.3,341.2,5146.3,219.7,4942.8,219.7z M4775.6,684h-7
		c-122.3,0-133.1-10.8-133.1-158.6c0-146.2,10.1-157.1,133.1-157.1h7V684z M4938.9,684h-7V368.3h7c123,0,133.9,10.8,133.9,157.1
		C5072.8,673.2,5061.2,684,4938.9,684z"/>
	<path d="M5458,387.2h-201.5V238.6h570.1v148.6h-201.4v427.1H5458V387.2z"/>
</g>
<path d="M1978.9,794.8c-45.5-25.4-80.8-61.3-105.9-107.7c-25-46.4-37.6-100-37.6-160.6c0-60.6,12.5-114.2,37.6-160.6
	c25.1-46.4,60.4-82.3,105.9-107.7c45.5-25.4,98.3-38.1,158.3-38.1c60,0,112.8,12.7,158.3,38.1s80.8,61.3,105.9,107.7
	c25,46.4,37.6,100,37.6,160.6c0,60.7-12.5,114.2-37.6,160.6c-25.1,46.4-60.4,82.3-105.9,107.7s-98.3,38.1-158.3,38.1
	C2077.1,832.8,2024.4,820.1,1978.9,794.8z M2277.4,526.4c0-122.2-22.8-157.8-140.2-157.8c-117.4,0-140.2,35.7-140.2,157.8
	c0,132.3,31.7,157.8,140.2,157.8C2245.7,684.2,2277.4,658.7,2277.4,526.4z"/>
<path d="M4162.2,8.3h176.4l-152.3,167.1H4049L4162.2,8.3z"/>
<path d="M648.5,238.6h302.7c72.5,0,128.3,14.7,167.6,44.1c39.3,29.4,58.9,71,58.9,124.9c0,31-7.9,57.4-23.7,79.4
	c-15.8,21.9-38.2,37.3-67.3,45.9v14.9c24.8,9.9,44,24.1,57.6,42.7c13.6,18.6,20.4,40.5,20.4,65.9c0,50.8-19.3,89.8-58,117
	c-38.7,27.2-93.6,40.8-164.8,40.8H648.5V238.6z M941.9,584h-130v98.4h130c47.3,0,63.2-1.7,63.2-49.2
	C1005.1,586.1,989.4,584,941.9,584z M951.2,370.5H811.9v100.3h139.3c60.5,0,63.2-11.6,63.2-50.2
	C1014.4,372.2,999.2,370.5,951.2,370.5z"/>
<path d="M3203.5,238.6h167.1v55.7h37.1c11.2-21,29.1-38.1,53.9-51.1c24.7-13,52-19.5,81.7-19.5c50.2,0,94.5,12.5,133.3,37.6
	c38.6,25.1,68.5,60.5,89.5,106.3c21.1,45.8,31.6,98.7,31.6,158.8s-10.5,113-31.6,158.8c-21,45.9-50.9,81.2-89.5,106.3
	c-38.8,25.1-83.1,37.6-133.3,37.6c-29.7,0-57-6.5-81.7-19.5c-24.8-13-42.7-30-53.9-51.1h-37.1V1000h-167.1V238.6z M3636.1,526.5
	c0-120.2-22.9-154.1-139.3-154.1c-116.7,0-139.3,34.2-139.3,154.1c0,119.3,21.9,154.1,139.3,154.1
	C3613.3,680.6,3636.1,646.6,3636.1,526.5z"/>
<path d="M2707.1,535.7l243.3-297.1H3142l-235.8,287.8l232.1,287.8h-205.6L2707.1,535.7z"/>
<rect x="2521.2" y="238.6" width="171" height="575.6"/>
<path d="M489,277.9c-46.4-38.7-113-58-199.6-58c-54.2,0-102.1,9.3-143.9,27.9c-41.8,18.6-75.1,45.7-100.6,80.5
	C20.1,363,4.6,404.8,0,452h163.3c11.1-80.3,43.6-89,126.1-89c82.4,0,100.5,2.9,105.2,85.1l-174.9,25.5
	c-61.9,9.3-109.9,29.4-143.9,60.4c-33.3,31.7-49.5,72-49.5,120.7c0,34.8,7.7,65,23.2,91.3c16.3,26.3,38.7,46.4,67.3,61.1
	c29.4,14.7,62.7,21.7,100.6,21.7c35.6,0,65-6.2,88.2-18.6c23.2-13.2,41-31.7,52.6-57.3h37.1v61.1h163.3V442.7
	C558.7,371.5,535.4,316.6,489,277.9z M395.4,589.7c0,68.3-64.1,103.7-133.9,103.7c-50.2,0-65-19.6-65-51.8
	c0-40.6,19.6-47.4,59.6-52.6l139.3-20.1V589.7z"/>
<path d="M4339.3,277.9c-46.4-38.7-113-58-199.6-58c-54.2,0-102.1,9.3-143.9,27.9c-41.8,18.6-75.1,45.7-100.6,80.5
	c-24.8,34.8-40.2,76.6-44.9,123.8h163.3c11.1-80.3,43.6-89,126.1-89c82.4,0,100.5,2.9,105.2,85.1l-174.9,25.5
	c-61.9,9.3-109.9,29.4-143.9,60.4c-33.3,31.7-49.5,72-49.5,120.7c0,34.8,7.7,65,23.2,91.3c16.3,26.3,38.7,46.4,67.3,61.1
	c29.4,14.7,62.7,21.7,100.6,21.7c35.6,0,65-6.2,88.2-18.6c23.2-13.2,41-31.7,52.6-57.3h37.1v61.1H4409V442.7
	C4409,371.5,4385.8,316.6,4339.3,277.9z M4245.7,589.7c0,68.3-64.1,103.7-133.9,103.7c-50.2,0-65-19.6-65-51.8
	c0-40.6,19.6-47.4,59.6-52.6l139.3-20.1V589.7z"/>
<rect class="st0" width="5826.6" height="1000"/>
</svg>
