<svg width="32" height="32" viewBox="0 0 32 32" fill="none" xmlns="http://www.w3.org/2000/svg">
<g clip-path="url(#clip0_82_21)">
<mask id="mask0_82_21" style="mask-type:luminance" maskUnits="userSpaceOnUse" x="0" y="0" width="32" height="32">
<path d="M32 0H0V32H32V0Z" fill="white"/>
</mask>
<g mask="url(#mask0_82_21)">
<path d="M15.9927 31.0018C15.5039 30.9999 15.0231 30.8876 14.5986 30.6752L9.67998 28.1873V23.1454L5.77013 26.2057L1.98586 24.2976C1.68518 24.1477 1.43491 23.9308 1.26166 23.6683C1.08841 23.4059 0.998489 23.1073 1.00003 22.8041V9.13887C0.998219 8.83533 1.0884 8.53752 1.26166 8.2747C1.43492 8.01189 1.68494 7.79373 1.98586 7.64355L14.5986 1.26961C15.0226 1.05584 15.5037 0.942892 15.9927 0.941193C16.482 0.941668 16.9632 1.0547 17.3867 1.26961L30.0163 7.65089C30.3159 7.80031 30.5634 8.01692 30.7362 8.27838C30.9091 8.53982 31.001 8.83669 31 9.13887V22.8041C31.0024 23.1063 30.9113 23.4032 30.7384 23.6647C30.5653 23.926 30.3168 24.1422 30.0163 24.2903L17.3867 30.6788C16.9626 30.8918 16.4813 31.003 15.9927 31.0018ZM15.9948 2.64935C15.9306 2.64967 15.8679 2.66479 15.8127 2.69338L3.53683 8.87651C3.48326 8.90263 3.43813 8.94026 3.40705 8.98658C3.37599 9.03292 3.361 9.08513 3.361 9.13887C3.361 9.19261 3.37599 9.24667 3.40705 9.29299C3.43813 9.33932 3.48326 9.37695 3.53683 9.40307L7.30644 11.302L11.2038 13.2652L15.8127 15.588C15.8686 15.6147 15.9311 15.6285 15.9948 15.6284C16.0586 15.6295 16.1214 15.6156 16.1769 15.588L28.4527 9.40307C28.5065 9.37716 28.5512 9.33935 28.5825 9.29299C28.6138 9.24664 28.6306 9.19273 28.6306 9.13887C28.6306 9.08501 28.6138 9.03294 28.5825 8.98658C28.5512 8.94024 28.5065 8.90242 28.4527 8.87651L16.1769 2.69338C16.1217 2.6629 16.0579 2.64709 15.9927 2.64752L15.9948 2.64935Z" fill="#F58C53"/>
<path d="M7.7764 17.0026C7.58126 17.0032 7.38992 16.9502 7.22464 16.8496C7.05935 16.749 6.9269 16.605 6.84266 16.4343C6.75842 16.2636 6.72586 16.0732 6.74876 15.8853C6.77166 15.6973 6.84908 15.5196 6.97203 15.3726L17.1814 5.1726C17.258 5.08689 17.3623 5.02896 17.4774 5.00834C17.5924 4.98771 17.7112 5.00562 17.8143 5.05911C17.9174 5.1126 17.9988 5.1985 18.0449 5.30271C18.0911 5.40692 18.0993 5.52325 18.0683 5.6326L16.0883 11.6526C16.0299 11.8041 16.0103 11.9671 16.0311 12.1276C16.052 12.2881 16.1127 12.4413 16.208 12.574C16.3033 12.7068 16.4304 12.8151 16.5784 12.8898C16.7264 12.9644 16.8908 13.0031 17.0577 13.0026H24.2764C24.4716 13.002 24.6629 13.055 24.8282 13.1556C24.9935 13.2562 25.1259 13.4002 25.2102 13.5709C25.2944 13.7416 25.3269 13.932 25.304 14.1199C25.2811 14.3079 25.2037 14.4856 25.0808 14.6326L14.8714 24.8326C14.7948 24.9183 14.6905 24.9762 14.5755 24.9969C14.4604 25.0175 14.3416 24.9996 14.2385 24.9461C14.1354 24.8926 14.0541 24.8067 14.0079 24.7025C13.9618 24.5983 13.9535 24.482 13.9845 24.3726L15.9645 18.3526C16.0229 18.2011 16.0425 18.0381 16.0217 17.8776C16.0008 17.7171 15.9401 17.5639 15.8448 17.4312C15.7495 17.2984 15.6224 17.1901 15.4744 17.1154C15.3264 17.0408 15.162 17.0021 14.9952 17.0026H7.7764Z" fill="#F58C53" stroke="white" stroke-width="2.5" stroke-linecap="round" stroke-linejoin="round"/>
</g>
</g>
<defs>
<clipPath id="clip0_82_21">
<rect width="32" height="32" fill="white"/>
</clipPath>
</defs>
</svg>
