<svg width="29" height="33" viewBox="0 0 29 33" fill="none" xmlns="http://www.w3.org/2000/svg">
<g clip-path="url(#clip0_18_2)">
<path d="M14.496 32.5C14.0399 32.498 13.5913 32.3784 13.1952 32.1523L8.6054 29.5039V24.1367L4.95696 27.3945L1.42571 25.3633C1.14513 25.2037 0.911598 24.9728 0.74993 24.6934C0.588261 24.414 0.504354 24.0962 0.505789 23.7734V9.22656C0.504102 8.90344 0.588253 8.58641 0.74993 8.30664C0.911606 8.02687 1.14491 7.79464 1.42571 7.63477L13.1952 0.849609C13.5908 0.622043 14.0397 0.501809 14.496 0.5C14.9526 0.500506 15.4017 0.620829 15.7968 0.849609L27.582 7.64258C27.8616 7.80164 28.0925 8.03223 28.2538 8.31055C28.4151 8.58886 28.5009 8.90489 28.4999 9.22656V23.7734C28.5022 24.0951 28.4172 24.4112 28.2558 24.6895C28.0943 24.9677 27.8624 25.1979 27.582 25.3555L15.7968 32.1562C15.4011 32.3829 14.952 32.5013 14.496 32.5ZM14.498 2.31836C14.4381 2.3187 14.3796 2.3348 14.3281 2.36523L2.87298 8.94727C2.82299 8.97508 2.78088 9.01514 2.75188 9.06445C2.72289 9.11377 2.70891 9.16935 2.70891 9.22656C2.70891 9.28377 2.72289 9.34131 2.75188 9.39062C2.78088 9.43994 2.82299 9.48 2.87298 9.50781L6.39055 11.5293L10.0273 13.6191L14.3281 16.0918C14.3802 16.1202 14.4386 16.1349 14.498 16.1348C14.5575 16.1359 14.6161 16.1211 14.6679 16.0918L26.123 9.50781C26.1732 9.48022 26.2149 9.43997 26.2441 9.39062C26.2733 9.34128 26.289 9.2839 26.289 9.22656C26.289 9.16923 26.2733 9.1138 26.2441 9.06445C26.2149 9.01511 26.1732 8.97486 26.123 8.94727L14.6679 2.36523C14.6164 2.33278 14.5569 2.31595 14.496 2.31641L14.498 2.31836Z" fill="#F1915D"/>
<path d="M13.7232 24.1292H7.4532V22.9632L11.1272 17.6722H7.5522V16.4622H13.7122V17.6282L10.0492 22.9192H13.7232V24.1292ZM13.5155 17.6722V16.4622H20.2255V17.6722H18.0475V24.1292H15.6935V17.6722H13.5155Z" fill="white"/>
</g>
<defs>
<clipPath id="clip0_18_2">
<rect width="29" height="33" fill="white"/>
</clipPath>
</defs>
</svg>
