<?xml version="1.0" encoding="utf-8"?>
<!-- Generator: Adobe Illustrator 23.0.1, SVG Export Plug-In . SVG Version: 6.00 Build 0)  -->
<svg version="1.1" xmlns="http://www.w3.org/2000/svg" xmlns:xlink="http://www.w3.org/1999/xlink" x="0px" y="0px"
	 viewBox="0 0 36.4 36.4" style="enable-background:new 0 0 36.4 36.4;" xml:space="preserve">
<style type="text/css">
	.st0{display:none;fill:#FFFFFF;}
	.st1{display:none;}
	.st2{display:inline;}
	.st3{fill:url(#SVGID_3_);}
	.st4{fill:#FFFFFF;}
	.st5{fill:none;}
	.st6{opacity:0.5;fill:none;stroke:#FFFFFF;stroke-width:2;stroke-miterlimit:10;}
</style>
<g id="Слой_1">
</g>
<g id="Слой_3" class="st1">
</g>
<g id="Слой_2">
	<g>
		<circle class="st5" cx="18.2" cy="18.2" r="26.8"/>
	</g>
	<path class="st4" d="M5.9,27c-3.7-5.1-3.7-12.3,0-17.5c3-4.3,7.7-6.4,12.3-6.4c3.9,0,7.7,1.5,10.7,4.4v0l-2.4,2.4v0
		c-2.2-2.2-5.2-3.4-8.3-3.4c-3.1,0-6.1,1.2-8.3,3.5s-3.4,5.2-3.4,8.3c0,3.1,1.2,6.1,3.5,8.3c2.2,2.2,5.2,3.4,8.3,3.4
		c3.1,0,6.1-1.2,8.3-3.5c1.9-1.9,3-4.4,3.3-6.9c0.1-0.8,0.8-1.4,1.6-1.5h0c1,0,1.8,0.9,1.7,1.9c-0.4,3.2-1.8,6.4-4.3,8.9
		c-2.9,3-6.8,4.4-10.7,4.5C13.6,33.3,9,31.2,5.9,27z"/>
	<path class="st4" d="M24.5,11.8l6.3-6.3c0.2-0.2,0.4,0,0.4,0.2l0,5.4c0,0.6-0.5,1.1-1.1,1.2l-5.4,0C24.5,12.2,24.4,11.9,24.5,11.8z
		"/>
</g>
</svg>
