<?xml version="1.0" encoding="utf-8"?>
<!-- Generator: Adobe Illustrator 23.0.1, SVG Export Plug-In . SVG Version: 6.00 Build 0)  -->
<svg version="1.1" xmlns="http://www.w3.org/2000/svg" xmlns:xlink="http://www.w3.org/1999/xlink" x="0px" y="0px"
	 viewBox="0 0 20.6 28.3" style="enable-background:new 0 0 20.6 28.3;" xml:space="preserve">
<style type="text/css">
	.st0{display:none;fill:#FFFFFF;}
	.st1{display:none;}
	.st2{display:inline;}
	.st3{fill:url(#SVGID_3_);}
	.st4{fill:#FFFFFF;}
	.st5{fill:none;}
	.st6{opacity:0.5;fill:none;stroke:#FFFFFF;stroke-width:2;stroke-miterlimit:10;}
</style>
<g id="Слой_1">
</g>
<g id="Слой_3" class="st1">
</g>
<g id="Слой_2">
	<g>
		<path class="st4" d="M18.3,28.3L18.3,28.3c1.3,0,2.3-1,2.3-2.3V2.3c0-1.3-1-2.3-2.3-2.3h0C17,0,16,1,16,2.3V26
			C16,27.2,17,28.3,18.3,28.3z"/>
		<path class="st4" d="M2.3,28.3L2.3,28.3c1.3,0,2.3-1,2.3-2.3V2.3C4.6,1,3.5,0,2.3,0h0C1,0,0,1,0,2.3L0,26C0,27.2,1,28.3,2.3,28.3z
			"/>
	</g>
</g>
</svg>
