<svg xmlns="http://www.w3.org/2000/svg" id="twitter-icon" viewBox="0 0 31 24" width="20px" height="15px">
      <path d="M29.2 2.8c-1.1 0.5-2.2 0.8-3.5 1 1.3-0.7 2.2-1.9 2.7-3.3 -1.2 0.7-2.5 1.2-3.8 1.5C23.5 0.7 21.9 0 20.2 0c-3.3 0-6 2.7-6 6.1 0 0.5 0.1 0.9 0.2 1.4C9.2 7.2 4.8 4.8 1.8 1.1 1.3 2 1 3 1 4.2c0 2.1 1.1 4 2.7 5 -1 0-1.9-0.3-2.7-0.8v0.1c0 2.9 2.1 5.4 4.9 5.9 -0.5 0.1-1 0.2-1.6 0.2 -0.4 0-0.8 0-1.1-0.1 0.8 2.4 3 4.2 5.7 4.2 -2.1 1.6-4.7 2.6-7.5 2.6 -0.5 0-1 0-1.4-0.1C2.4 23 5.6 24 9 24c11.1 0 17.2-9.2 17.2-17.2 0-0.3 0-0.5 0-0.8C27.4 5.1 28.4 4.1 29.2 2.8" fill="#FFF"></path>
    </svg>