<svg xmlns="http://www.w3.org/2000/svg" id="vk-icon" viewBox="0 0 33 19" width="20px" height="12px">
      <path d="M16.1 18.9h2c0 0 0.6-0.1 0.9-0.4 0.3-0.3 0.3-0.9 0.3-0.9s0-2.6 1.2-3c1.2-0.4 2.8 2.6 4.4 3.7 1.2 0.9 2.2 0.7 2.2 0.7l4.4-0.1c0 0 2.3-0.1 1.2-2 -0.1-0.1-0.6-1.3-3.3-3.8 -2.8-2.6-2.4-2.1 0.9-6.6 2-2.7 2.8-4.3 2.6-5.1 -0.2-0.7-1.7-0.5-1.7-0.5l-5 0c0 0-0.4 0-0.6 0.1 -0.3 0.2-0.4 0.5-0.4 0.5s-0.8 2.1-1.8 3.9c-2.2 3.7-3.1 3.9-3.4 3.7 -0.8-0.5-0.6-2.2-0.6-3.3 0-3.6 0.6-5.1-1.1-5.5 -0.5-0.1-0.9-0.2-2.3-0.2 -1.8 0-3.3 0-4.1 0.4 -0.6 0.3-1 0.9-0.7 0.9 0.3 0 1.1 0.2 1.5 0.7 0.5 0.7 0.5 2.2 0.5 2.2s0.3 4.3-0.7 4.8c-0.7 0.4-1.6-0.4-3.6-3.8C7.7 3.8 7 1.9 7 1.9S6.8 1.5 6.5 1.3C6.2 1.1 5.8 1 5.8 1L1.1 1.1c0 0-0.7 0-1 0.3 -0.2 0.3 0 0.8 0 0.8s3.7 8.6 7.9 13C11.8 19.2 16.1 18.9 16.1 18.9" fill="#FFF"></path>
    </svg>