<svg width="34" height="37" viewBox="0 0 34 37" fill="none" xmlns="http://www.w3.org/2000/svg">
<g clip-path="url(#clip0_37_2)">
<mask id="mask0_37_2" style="mask-type:luminance" maskUnits="userSpaceOnUse" x="0" y="0" width="34" height="37">
<path d="M34 0H0V37H34V0Z" fill="white"/>
</mask>
<g mask="url(#mask0_37_2)">
<path d="M16.9924 35.8788C16.4888 35.8766 15.9935 35.7467 15.5562 35.5011L10.4885 32.6245V26.7948L6.46014 30.3333L2.56119 28.1271C2.2514 27.9537 1.99355 27.7029 1.81505 27.3995C1.63654 27.096 1.5439 26.7508 1.54548 26.4002V10.5998C1.54362 10.2488 1.63653 9.90447 1.81505 9.60059C1.99356 9.29671 2.25115 9.04447 2.56119 8.87082L15.5562 1.50095C15.993 1.25378 16.4886 1.12318 16.9924 1.12122C17.4966 1.12177 17.9924 1.25246 18.4287 1.50095L31.441 8.8793C31.7497 9.05207 32.0047 9.30253 32.1828 9.60483C32.3609 9.90713 32.4556 10.2504 32.4545 10.5998V26.4002C32.457 26.7496 32.3632 27.0929 32.185 27.3952C32.0067 27.6974 31.7506 27.9474 31.441 28.1186L18.4287 35.5054C17.9918 35.7516 17.4959 35.8802 16.9924 35.8788ZM16.9946 3.09627C16.9285 3.09664 16.8639 3.11413 16.807 3.14718L4.15916 10.2964C4.10396 10.3266 4.05747 10.3701 4.02545 10.4237C3.99344 10.4773 3.97801 10.5376 3.97801 10.5998C3.97801 10.6619 3.99344 10.7244 4.02545 10.778C4.05747 10.8315 4.10396 10.8751 4.15916 10.9053L8.043 13.101L12.0584 15.3708L16.807 18.0566C16.8646 18.0875 16.9291 18.1034 16.9946 18.1033C17.0603 18.1045 17.125 18.0885 17.1822 18.0566L29.8301 10.9053C29.8855 10.8753 29.9316 10.8316 29.9638 10.778C29.9961 10.7244 30.0134 10.6621 30.0134 10.5998C30.0134 10.5375 29.9961 10.4773 29.9638 10.4237C29.9316 10.3701 29.8855 10.3264 29.8301 10.2964L17.1822 3.14718C17.1254 3.11193 17.0597 3.09365 16.9924 3.09415L16.9946 3.09627Z" fill="#F58C53"/>
<path d="M16.6593 25.6654H9.73639V24.399L13.7929 18.652H9.8457V17.3377H16.6471V18.6042L12.6027 24.3512H16.6593V25.6654ZM16.4299 18.652V17.3377H23.8386V18.652H21.4338V25.6654H18.8347V18.652H16.4299Z" fill="white"/>
</g>
</g>
<defs>
<clipPath id="clip0_37_2">
<rect width="34" height="37" fill="white"/>
</clipPath>
</defs>
</svg>
